<?xml version="1.0" encoding="UTF-8" standalone="no"?>
<!-- Created with Inkscape (http://www.inkscape.org/) -->

<svg
   xmlns:dc="http://purl.org/dc/elements/1.1/"
   xmlns:cc="http://creativecommons.org/ns#"
   xmlns:rdf="http://www.w3.org/1999/02/22-rdf-syntax-ns#"
   xmlns:svg="http://www.w3.org/2000/svg"
   xmlns="http://www.w3.org/2000/svg"
   xmlns:sodipodi="http://sodipodi.sourceforge.net/DTD/sodipodi-0.dtd"
   xmlns:inkscape="http://www.inkscape.org/namespaces/inkscape"
   width="166.22888mm"
   height="232.55112mm"
   viewBox="0 0 588.99998 824.00002"
   id="svg2"
   version="1.1"
   inkscape:version="0.91 r13725"
   sodipodi:docname="border.svg"
   style="shape-rendering:crispEdges">
  <defs
     id="defs4" />
  <sodipodi:namedview
     id="base"
     pagecolor="#ffffff"
     bordercolor="#666666"
     borderopacity="1.0"
     inkscape:pageopacity="0.0"
     inkscape:pageshadow="2"
     inkscape:zoom="0.5"
     inkscape:cx="-194.46245"
     inkscape:cy="372.21279"
     inkscape:document-units="px"
     inkscape:current-layer="layer1"
     showgrid="false"
     inkscape:window-width="1600"
     inkscape:window-height="779"
     inkscape:window-x="0"
     inkscape:window-y="1"
     inkscape:window-maximized="1"
     fit-margin-top="0"
     fit-margin-left="0"
     fit-margin-right="0"
     fit-margin-bottom="0" />
  <metadata
     id="metadata7">
    <rdf:RDF>
      <cc:Work
         rdf:about="">
        <dc:format>image/svg+xml</dc:format>
        <dc:type
           rdf:resource="http://purl.org/dc/dcmitype/StillImage" />
        <dc:title></dc:title>
        <cc:license
           rdf:resource="http://creativecommons.org/publicdomain/zero/1.0/" />
      </cc:Work>
      <cc:License
         rdf:about="http://creativecommons.org/publicdomain/zero/1.0/">
        <cc:permits
           rdf:resource="http://creativecommons.org/ns#Reproduction" />
        <cc:permits
           rdf:resource="http://creativecommons.org/ns#Distribution" />
        <cc:permits
           rdf:resource="http://creativecommons.org/ns#DerivativeWorks" />
      </cc:License>
    </rdf:RDF>
  </metadata>
  <g
     inkscape:label="Layer 1"
     inkscape:groupmode="layer"
     id="layer1"
     transform="translate(-78.254788,-109.22007)">
    <path
       style="fill:#000000"
       d="m 78.254788,521.22007 0,-412 294.499992,0 294.5,0 0,412 0,412 -294.5,0 -294.499992,0 0,-412 z m 59.000002,382.5 0,-14.5 7.5,0 7.5,0 0,14.5 0,14.5 220.49999,0 220.5,0 0,-14.5 0,-14.5 7.5,0 7.5,0 0,14.5 0,14.5 22,0 22,0 0,-22 0,-22 -14.5,0 -14.5,0 0,-7.5 0,-7.5 14.5,0 14.5,0 0,-338 0,-338 -14.5,0 -14.5,0 0,-7.5 0,-7.5 14.5,0 14.5,0 0,-22 0,-22 -22,0 -22,0 0,14.5 0,14.5 -7.5,0 -7.5,0 0,-14.5 0,-14.5 -220.5,0 -220.49999,0 0,14.5 0,14.5 -7.5,0 -7.5,0 0,-14.5 0,-14.5 -22,0 -22.000002,0 0,22 0,22 14.500002,0 14.5,0 0,7.5 0,7.5 -14.5,0 -14.500002,0 0,338 0,338 14.500002,0 14.5,0 0,7.5 0,7.5 -14.5,0 -14.500002,0 0,22 0,22 22.000002,0 22,0 0,-14.5 z m -30,-7 0,-7.5 7.5,0 7.5,0 0,7.5 0,7.5 -7.5,0 -7.5,0 0,-7.5 z m 59,0 0,-7.5 15,0 15,0 0,-22 0,-22 -15,0 -15,0 0,-15 0,-15 -22,0 -22,0 0,15 0,15 -7.5,0 -7.5,0 0,-132.5 0,-132.5 15,0 15,0 0,-15 0,-15 14.5,0 14.5,0 0,-29 0,-29 -14.5,0 -14.5,0 0,-15 0,-15 -15,0 -15,0 0,-132.5 0,-132.5 7.5,0 7.5,0 0,15 0,15 22,0 22,0 0,-15 0,-15 15,0 15,0 0,-22 0,-22 -15,0 -15,0 0,-7.5 0,-7.5 206.49999,0 206.5,0 0,7.5 0,7.5 -15,0 -15,0 0,22 0,22 15,0 15,0 0,15 0,15 22,0 22,0 0,-15 0,-15 7.5,0 7.5,0 0,132.5 0,132.5 -15,0 -15,0 0,15 0,15 -14.5,0 -14.5,0 0,29 0,29 14.5,0 14.5,0 0,15 0,15 15,0 15,0 0,132.5 0,132.5 -7.5,0 -7.5,0 0,-15 0,-15 -22,0 -22,0 0,15 0,15 -15,0 -15,0 0,22 0,22 15,0 15,0 0,7.5 0,7.5 -206.5,0 -206.49999,0 0,-7.5 z m 367.99999,-37 0,-29.5 15,0 15,0 0,-14.5 0,-14.5 29.5,0 29.5,0 0,-103 0,-103 -15,0 -15,0 0,-15 0,-15 -14.5,0 -14.5,0 0,-44 0,-44 14.5,0 14.5,0 0,-15 0,-15 15,0 15,0 0,-103 0,-103 -29.5,0 -29.5,0 0,-14.5 0,-14.5 -15,0 -15,0 0,-29.5 0,-29.5 -161.5,0 -161.5,0 0,29.5 0,29.5 -14.99999,0 -15,0 0,14.5 0,14.5 -29.5,0 -29.5,0 0,103 0,103 15,0 15,0 0,15 0,15 14.5,0 14.5,0 0,44 0,44 -14.5,0 -14.5,0 0,15 0,15 -15,0 -15,0 0,103 0,103 29.5,0 29.5,0 0,14.5 0,14.5 15,0 14.99999,0 0,29.5 0,29.5 161.5,0 161.5,0 0,-29.5 z m 89,37 0,-7.5 7.5,0 7.5,0 0,7.5 0,7.5 -7.5,0 -7.5,0 0,-7.5 z m -485.99999,-30 0,-7.5 7.5,0 7.5,0 0,7.5 0,7.5 -7.5,0 -7.5,0 0,-7.5 z m 29,0 0,-7.5 7.5,0 7.5,0 0,7.5 0,7.5 -7.5,0 -7.5,0 0,-7.5 z m 397.99999,0 0,-7.5 7.5,0 7.5,0 0,7.5 0,7.5 -7.5,0 -7.5,0 0,-7.5 z m 29,0 0,-7.5 7.5,0 7.5,0 0,7.5 0,7.5 -7.5,0 -7.5,0 0,-7.5 z m -455.99999,-29 0,-7.5 7.5,0 7.5,0 0,7.5 0,7.5 -7.5,0 -7.5,0 0,-7.5 z m 455.99999,0 0,-7.5 7.5,0 7.5,0 0,7.5 0,7.5 -7.5,0 -7.5,0 0,-7.5 z m -485.99999,-280 0,-7.5 7.5,0 7.5,0 0,7.5 0,7.5 -7.5,0 -7.5,0 0,-7.5 z m 515.99999,0 0,-7.5 7.5,0 7.5,0 0,7.5 0,7.5 -7.5,0 -7.5,0 0,-7.5 z m -515.99999,-36.5 0,-15 7.5,0 7.5,0 0,15 0,15 -7.5,0 -7.5,0 0,-15 z m 30,0 0,-15 7.5,0 7.5,0 0,15 0,15 -7.5,0 -7.5,0 0,-15 z m 455.99999,0 0,-15 7.5,0 7.5,0 0,15 0,15 -7.5,0 -7.5,0 0,-15 z m 30,0 0,-15 7.5,0 7.5,0 0,15 0,15 -7.5,0 -7.5,0 0,-15 z m -515.99999,-36.5 0,-7.5 7.5,0 7.5,0 0,7.5 0,7.5 -7.5,0 -7.5,0 0,-7.5 z m 515.99999,0 0,-7.5 7.5,0 7.5,0 0,7.5 0,7.5 -7.5,0 -7.5,0 0,-7.5 z m -485.99999,-280 0,-7.5 7.5,0 7.5,0 0,7.5 0,7.5 -7.5,0 -7.5,0 0,-7.5 z m 455.99999,0 0,-7.5 7.5,0 7.5,0 0,7.5 0,7.5 -7.5,0 -7.5,0 0,-7.5 z m -455.99999,-29 0,-7.5 7.5,0 7.5,0 0,7.5 0,7.5 -7.5,0 -7.5,0 0,-7.5 z m 29,0 0,-7.5 7.5,0 7.5,0 0,7.5 0,7.5 -7.5,0 -7.5,0 0,-7.5 z m 397.99999,0 0,-7.5 7.5,0 7.5,0 0,7.5 0,7.5 -7.5,0 -7.5,0 0,-7.5 z m 29,0 0,-7.5 7.5,0 7.5,0 0,7.5 0,7.5 -7.5,0 -7.5,0 0,-7.5 z m -485.99999,-30 0,-7.5 7.5,0 7.5,0 0,7.5 0,7.5 -7.5,0 -7.5,0 0,-7.5 z m 515.99999,0 0,-7.5 7.5,0 7.5,0 0,7.5 0,7.5 -7.5,0 -7.5,0 0,-7.5 z"
       id="path3597"
       inkscape:connector-curvature="0" />
  </g>
</svg>
