<svg xmlns="http://www.w3.org/2000/svg" width="628.267" height="878.933" viewBox="0 0 588.99998 824.00002" shape-rendering="crispEdges"><path d="M0 412V0h589v824H0V412zm59 382.5V780h15v29h441v-29h15v29h44v-44h-29v-15h29V74h-29V59h29V15h-44v29h-15V15H74v29H59V15H15v44h29v15H15v676h29v15H15v44h44v-14.5zm-30-7V780h15v15H29v-7.5zm59 0V780h30v-44H88v-30H44v30H29V471h30v-30h29v-58H59v-30H29V88h15v30h44V88h30V44H88V29h413v15h-30v44h30v30h44V88h15v265h-30v30h-29v58h29v30h30v265h-15v-30h-44v30h-30v44h30v15H88v-7.5zm368-37V721h30v-29h59V486h-30v-30h-29v-88h29v-30h30V132h-59v-29h-30V44H133v59h-30v29H44v206h30v30h29v88H74v30H44v206h59v29h30v59h323v-29.5zm89 37V780h15v15h-15v-7.5zm-486-30V750h15v15H59v-7.5zm29 0V750h15v15H88v-7.5zm398 0V750h15v15h-15v-7.5zm29 0V750h15v15h-15v-7.5zm-456-29V721h15v15H59v-7.5zm456 0V721h15v15h-15v-7.5zm-486-280V441h15v15H29v-7.5zm516 0V441h15v15h-15v-7.5zM29 412v-15h15v30H29v-15zm30 0v-15h15v30H59v-15zm456 0v-15h15v30h-15v-15zm30 0v-15h15v30h-15v-15zM29 375.5V368h15v15H29v-7.5zm516 0V368h15v15h-15v-7.5zM59 95.5V88h15v15H59v-7.5zm456 0V88h15v15h-15v-7.5zm-456-29V59h15v15H59v-7.5zm29 0V59h15v15H88v-7.5zm398 0V59h15v15h-15v-7.5zm29 0V59h15v15h-15v-7.5zm-486-30V29h15v15H29v-7.5zm516 0V29h15v15h-15v-7.5z"/></svg>